<svg xmlns="http://www.w3.org/2000/svg" viewBox="0 0 751 751"><defs><style>.cls-1{fill:#fff;}.cls-2{fill:none;stroke:#000;stroke-linecap:round;stroke-miterlimit:10;stroke-width:10px;}</style></defs><g id="Layer_2" data-name="Layer 2"><g id="Layer_1-2" data-name="Layer 1"><circle class="cls-1" cx="375.5" cy="375.5" r="375.5"/><polyline class="cls-2" points="256.3 145.79 256.3 190.88 256.3 605.17"/><line class="cls-2" x1="256.3" y1="206.85" x2="293.04" y2="170.11"/><line class="cls-2" x1="256.3" y1="342.7" x2="338.18" y2="260.82"/><polyline class="cls-2" points="377.12 342.7 256.3 463.51 135.08 342.3"/><line class="cls-2" x1="256.3" y1="561.02" x2="341.86" y2="475.46"/><line class="cls-2" x1="256.3" y1="260.82" x2="189.41" y2="193.93"/><line class="cls-2" x1="256.3" y1="561.02" x2="116.42" y2="421.14"/><line class="cls-2" x1="256.3" y1="379.71" x2="169.97" y2="293.38"/><path class="cls-2" d="M583.45,605.17H473.09a26.55,26.55,0,0,1-26.55-26.55V172.34a26.55,26.55,0,0,1,26.55-26.55H583.45A26.55,26.55,0,0,1,610,172.34V578.62A26.55,26.55,0,0,1,583.45,605.17Z"/><line class="cls-2" x1="559.74" y1="206.85" x2="610" y2="206.85"/><line class="cls-2" x1="446.54" y1="241.11" x2="512.77" y2="241.11"/><line class="cls-2" x1="610" y1="324.72" x2="509.01" y2="324.72"/><line class="cls-2" x1="446.54" y1="402.91" x2="490.22" y2="402.91"/><line class="cls-2" x1="610" y1="475.46" x2="574.77" y2="475.46"/><line class="cls-2" x1="446.54" y1="531.39" x2="546.59" y2="531.39"/></g></g></svg>